M48
; DRILL file {KiCad 7.0.10-7.0.10~ubuntu22.04.1} date So 14 Jan 2024 12:30:14 CET
; FORMAT={-:-/ absolute / inch / decimal}
; #@! TF.CreationDate,2024-01-14T12:30:14+01:00
; #@! TF.GenerationSoftware,Kicad,Pcbnew,7.0.10-7.0.10~ubuntu22.04.1
; #@! TF.FileFunction,Plated,1,2,PTH
FMAT,2
INCH
; #@! TA.AperFunction,Plated,PTH,ViaDrill
T1C0.0157
; #@! TA.AperFunction,Plated,PTH,ComponentDrill
T2C0.0300
; #@! TA.AperFunction,Plated,PTH,ComponentDrill
T3C0.0394
; #@! TA.AperFunction,Plated,PTH,ComponentDrill
T4C0.0469
; #@! TA.AperFunction,Plated,PTH,ViaDrill
T5C0.1260
%
G90
G05
T1
X2.0669Y-1.378
X2.0669Y-1.5748
X2.0669Y-1.7717
X2.0669Y-1.9685
X2.0669Y-2.1654
X2.0669Y-2.3622
X2.0669Y-2.5591
X2.0669Y-2.7559
X2.0669Y-2.9528
X2.0669Y-3.1496
X2.0669Y-3.3465
X2.0669Y-3.5433
X2.0669Y-6.1299
X2.1654Y-1.4764
X2.1654Y-1.6732
X2.1654Y-1.8701
X2.1654Y-2.0669
X2.1654Y-2.2638
X2.1654Y-2.4606
X2.1654Y-2.6575
X2.1654Y-2.8543
X2.1654Y-3.0512
X2.1654Y-3.248
X2.1654Y-3.4449
X2.1654Y-3.6417
X2.2638Y-1.378
X2.2638Y-1.5748
X2.2638Y-1.7717
X2.2638Y-1.9685
X2.2638Y-2.1654
X2.2638Y-2.3622
X2.2638Y-2.5591
X2.2638Y-2.7559
X2.2638Y-2.9528
X2.2638Y-3.1496
X2.2638Y-3.3465
X2.2638Y-3.5433
X2.3622Y-1.4764
X2.3622Y-1.6732
X2.3622Y-1.8701
X2.3622Y-2.0669
X2.3622Y-2.1654
X2.3622Y-2.2638
X2.3622Y-2.3622
X2.3622Y-2.4606
X2.3622Y-2.6575
X2.3622Y-2.8543
X2.3622Y-3.0512
X2.3622Y-3.248
X2.3622Y-3.4449
X2.3622Y-3.6417
X2.4606Y-1.378
X2.4606Y-1.5748
X2.4606Y-1.7717
X2.4606Y-1.9685
X2.4606Y-2.0669
X2.4606Y-2.1654
X2.4606Y-2.2638
X2.4606Y-2.3622
X2.4606Y-2.4606
X2.4606Y-2.5591
X2.4606Y-2.7559
X2.4606Y-2.9528
X2.4606Y-3.1496
X2.4606Y-3.3465
X2.4606Y-3.5433
X2.5591Y-1.4764
X2.5591Y-1.6732
X2.5591Y-1.8701
X2.5591Y-2.0669
X2.5591Y-2.1654
X2.5591Y-2.2638
X2.5591Y-2.3622
X2.5591Y-2.4606
X2.5591Y-2.6575
X2.5591Y-2.8543
X2.5591Y-3.0512
X2.5591Y-3.248
X2.5591Y-3.4449
X2.5591Y-3.6417
X2.6575Y-1.378
X2.6575Y-1.5748
X2.6575Y-1.7717
X2.6575Y-1.9685
X2.6575Y-2.0669
X2.6575Y-2.1654
X2.6575Y-2.2638
X2.6575Y-2.3622
X2.6575Y-2.4606
X2.6575Y-2.5591
X2.6575Y-2.7559
X2.6575Y-2.9528
X2.6575Y-3.1496
X2.6575Y-3.3465
X2.6575Y-3.5433
X2.9197Y-8.6669
X2.9291Y-4.4291
X2.9291Y-4.5079
X2.9882Y-7.5551
X3.1398Y-2.1673
X3.252Y-5.4921
X3.252Y-5.5551
X3.252Y-5.622
X3.252Y-5.6929
X3.6575Y-5.6024
X3.6575Y-8.2008
X3.7087Y-6.6378
X3.748Y-7.3976
X3.8858Y-5.3858
X3.8858Y-5.4646
X4.0472Y-0.9606
X4.1496Y-9.2441
X4.1752Y-1.0098
X4.1811Y-8.1024
X4.2362Y-8.7874
X4.2677Y-7.0433
X4.2756Y-6.4528
X4.2874Y-3.1181
X4.2992Y-7.5945
X4.4724Y-4.7874
X4.4724Y-5.2244
X4.5157Y-7.4409
X4.5197Y-6.3465
X4.5197Y-8.7244
X4.5295Y-0.9075
X4.5709Y-5.3858
X4.622Y-5.4685
X4.626Y-6.2205
X4.748Y-5.4449
X4.8346Y-2.563
X5.0197Y-4.1378
X5.1181Y-4.122
X5.2008Y-5.2598
X5.2126Y-5.8543
X5.2244Y-4.5669
X5.2362Y-4.0315
X5.248Y-4.6929
X5.248Y-4.8425
X5.2638Y-4.1575
X5.3228Y-5.3898
X5.3228Y-5.5276
X5.3937Y-5.0472
X5.4267Y-4.6722
X5.437Y-5.5276
X5.437Y-5.7638
X5.438Y-4.8967
X5.4488Y-4.8031
X5.4646Y-5.8504
X5.5Y-4.8976
X5.5358Y-2.5587
X5.5472Y-5.2283
X5.5984Y-4.1063
X5.6096Y-5.5
X5.6096Y-6.2054
X5.6585Y-4.6978
X5.6654Y-4.5039
X5.6654Y-4.6417
X5.6719Y-5.3254
X5.6772Y-5.5
X5.6772Y-5.8504
X5.6772Y-6.2087
X5.7219Y-5.1943
X5.7362Y-5.2638
X5.7441Y-6.2087
X5.7874Y-5.0433
X5.7913Y-4.5039
X5.8189Y-6.1969
X5.8219Y-5.1998
X5.8386Y-4.7008
X5.8406Y-4.6156
X5.8583Y-4.9291
X5.8701Y-5.8504
X5.8976Y-3.9764
X5.9528Y-4.5039
X5.9882Y-6.6654
X6.0157Y-5.4882
X6.0472Y-4.5669
X6.0472Y-4.6457
X6.0573Y-7.1829
X6.0807Y-5.4902
X6.0984Y-5.815
X6.0984Y-5.8819
X6.0984Y-5.9409
X6.1339Y-4.189
X6.1573Y-7.2006
X6.1575Y-7.6417
X6.1614Y-4.5197
X6.1811Y-5.9291
X6.1825Y-6.5537
X6.2073Y-7.122
X6.2325Y-5.8935
X6.248Y-3.815
X6.2795Y-7.6417
X6.3327Y-3.4626
X6.3543Y-4.0906
X6.3573Y-7.6309
X6.3819Y-3.3071
X6.3819Y-3.7835
X6.3858Y-4.7756
X6.3858Y-4.9213
X6.3858Y-5.0669
X6.3898Y-4.5
X6.3937Y-5.4409
X6.4325Y-3.7407
X6.4488Y-5.878
X6.5197Y-5.9291
X6.5276Y-3.2835
X6.563Y-4.2087
X6.563Y-4.5906
X6.5748Y-6.9331
X6.5748Y-7.063
X6.5866Y-3.0394
X6.5906Y-3.5197
X6.6181Y-5.0945
X6.6181Y-5.8346
X6.6929Y-5.2441
X6.7455Y-4.1482
X6.8583Y-4.1535
X6.874Y-5.8031
X6.878Y-7.2047
X6.8937Y-3.8543
X6.8937Y-5.4528
X6.8976Y-6.2087
X6.8976Y-6.3504
X6.8976Y-6.4961
X6.8976Y-6.6457
X6.8976Y-6.7874
X6.8976Y-6.9291
X6.8976Y-7.063
X6.8976Y-7.3386
X6.8976Y-7.4724
X6.8976Y-7.6181
X6.8976Y-7.7638
X6.9016Y-7.9134
X6.9055Y-3.2283
X6.9055Y-3.4685
X6.9055Y-3.5866
X6.9094Y-3.3504
X6.9094Y-3.7047
X6.9606Y-5.9961
X6.9921Y-4.5512
X7.063Y-5.0748
X7.0906Y-4.9409
X7.1009Y-3.1836
X7.1039Y-1.9079
X7.122Y-7.3504
X7.1496Y-5.7835
X7.1575Y-6.1811
X7.1614Y-4.7717
X7.1772Y-5.2677
X7.1772Y-5.3898
X7.2087Y-3.7677
X7.2087Y-4.185
X7.2087Y-4.5039
X7.2087Y-6.5197
X7.2126Y-3.315
X7.2126Y-7.1772
X7.2126Y-7.6496
X7.2362Y-2.8031
X7.2402Y-6.2244
X7.2874Y-5.5276
X7.2913Y-2.2402
X7.2953Y-1.4921
X7.2953Y-1.7717
X7.3386Y-0.8465
X7.3386Y-0.8937
X7.3386Y-1.4449
X7.3425Y-5.5276
X7.3567Y-3.9504
X7.3583Y-3.1457
X7.3583Y-3.4961
X7.3583Y-3.5941
X7.3583Y-6.2323
X7.3583Y-6.3386
X7.3583Y-6.7047
X7.3583Y-7.3504
X7.3622Y-7.8307
X7.3819Y-4.5079
X7.3976Y-4.8701
X7.4134Y-5.2008
X7.4173Y-5.4685
X7.4173Y-5.8031
X7.4921Y-7.3937
X7.5276Y-4.5039
X7.5417Y-4.6866
X7.5417Y-5.8228
X7.5591Y-3.1457
X7.5591Y-3.5
X7.5591Y-3.5906
X7.5591Y-3.9921
X7.5591Y-7.8307
X7.6063Y-6.7047
X7.6063Y-6.8937
X7.6378Y-5.4685
X7.6417Y-5.3819
X7.6437Y-4.5846
X7.685Y-6.4409
X7.6969Y-3.3307
X7.6969Y-3.7677
X7.6969Y-4.2165
X7.6969Y-6.0
X7.7008Y-7.6496
X7.7047Y-7.1811
X7.7362Y-6.7126
X7.7559Y-5.8583
X7.7835Y-4.1969
X7.8701Y-5.5354
X7.878Y-4.5551
X7.8858Y-4.8701
X7.8937Y-5.8504
X7.8976Y-5.0551
X7.9213Y-3.4134
X7.9567Y-6.2126
X7.9961Y-5.7756
X8.063Y-4.6614
X8.1496Y-4.8622
X8.1496Y-5.8465
X8.1496Y-6.3031
X8.1496Y-6.4996
X8.1614Y-4.2244
X8.1693Y-5.2283
X8.2047Y-3.8031
X8.2047Y-6.1614
X8.2087Y-4.2717
X8.2126Y-3.7165
X8.2402Y-4.7677
X8.2441Y-6.3189
X8.2598Y-5.7244
X8.2638Y-4.3307
X8.2708Y-4.8583
X8.3031Y-5.9634
X8.3044Y-5.8634
X8.3067Y-5.7634
X8.3071Y-4.9646
X8.3071Y-5.1657
X8.3071Y-5.2657
X8.3071Y-5.563
X8.3071Y-5.6654
X8.3071Y-6.063
X8.3071Y-6.1614
X8.3075Y-5.0634
X8.3106Y-5.3657
X8.311Y-5.4146
X8.311Y-5.4724
X8.3303Y-3.5634
X8.3514Y-4.3278
X8.3819Y-4.4646
X8.6063Y-3.4646
X9.185Y-3.3937
X9.7717Y-3.3976
X9.7835Y-7.0433
X10.3543Y-7.0512
X10.3661Y-3.3976
X10.9449Y-7.0512
X10.9528Y-3.3937
X11.5354Y-7.0512
X12.126Y-7.0512
T2
X3.0709Y-5.8008
X3.0709Y-5.9008
X3.1709Y-5.8008
X3.1709Y-5.9008
X3.2709Y-5.8008
X3.2709Y-5.9008
X3.3709Y-5.8008
X3.3709Y-5.9008
X3.4709Y-5.8008
X3.4709Y-5.9008
X3.5709Y-4.5008
X3.5709Y-4.6008
X3.5709Y-5.8008
X3.5709Y-5.9008
X3.6709Y-4.5008
X3.6709Y-4.6008
X3.6709Y-5.8008
X3.6709Y-5.9008
X3.7709Y-4.5008
X3.7709Y-4.6008
X3.7709Y-5.8008
X3.7709Y-5.9008
X3.8709Y-4.5008
X3.8709Y-4.6008
X3.8709Y-5.8008
X3.8709Y-5.9008
X3.9709Y-4.5008
X3.9709Y-4.6008
X3.9709Y-5.8008
X3.9709Y-5.9008
X4.0709Y-4.5008
X4.0709Y-4.6008
X4.0709Y-5.8008
X4.0709Y-5.9008
X4.1709Y-4.5008
X4.1709Y-4.6008
X4.1709Y-5.8008
X4.1709Y-5.9008
X4.2709Y-4.5008
X4.2709Y-4.6008
X4.2709Y-5.8008
X4.2709Y-5.9008
X4.3709Y-4.5008
X4.3709Y-4.6008
X4.3709Y-5.8008
X4.3709Y-5.9008
X4.4709Y-4.5008
X4.4709Y-4.6008
X4.4709Y-5.8008
X4.4709Y-5.9008
X4.5709Y-4.5008
X4.5709Y-4.6008
X4.5709Y-5.8008
X4.5709Y-5.9008
X4.6709Y-4.5008
X4.6709Y-4.6008
X4.6709Y-5.8008
X4.6709Y-5.9008
X4.7709Y-4.5008
X4.7709Y-4.6008
X4.7709Y-5.8008
X4.7709Y-5.9008
X4.8709Y-4.5008
X4.8709Y-4.6008
X4.8709Y-5.8008
X4.8709Y-5.9008
X4.9709Y-4.5008
X4.9709Y-4.6008
X4.9709Y-4.7008
X4.9709Y-4.8008
X4.9709Y-4.9008
X4.9709Y-5.2008
X4.9709Y-5.3008
X4.9709Y-5.4008
X4.9709Y-5.8008
X4.9709Y-5.9008
X5.0709Y-4.5008
X5.0709Y-4.6008
X5.0709Y-4.7008
X5.0709Y-4.8008
X5.0709Y-4.9008
X5.0709Y-5.2008
X5.0709Y-5.3008
X5.0709Y-5.4008
X5.0709Y-5.8008
X5.0709Y-5.9008
T3
X2.3129Y-4.0559
X2.3129Y-4.1559
X2.3129Y-4.2559
X2.3129Y-4.3559
X2.3129Y-4.4559
X2.3129Y-5.8319
X2.3129Y-5.9319
X2.3129Y-6.0319
X2.3129Y-6.1319
X2.3129Y-6.2319
X2.3129Y-7.0043
X2.3129Y-7.1043
X2.3129Y-7.2043
X2.3129Y-7.3043
X2.3129Y-7.4043
X2.3129Y-7.5043
X2.3129Y-7.6043
X2.3129Y-7.7043
X2.3129Y-8.3669
X2.3129Y-8.4669
X2.3129Y-8.5669
X2.3129Y-8.6669
X2.3129Y-8.7669
X2.4129Y-4.0559
X2.4129Y-4.1559
X2.4129Y-4.2559
X2.4129Y-4.3559
X2.4129Y-4.4559
X2.4129Y-5.8319
X2.4129Y-5.9319
X2.4129Y-6.0319
X2.4129Y-6.1319
X2.4129Y-6.2319
X2.4129Y-7.0043
X2.4129Y-7.1043
X2.4129Y-7.2043
X2.4129Y-7.3043
X2.4129Y-7.4043
X2.4129Y-7.5043
X2.4129Y-7.6043
X2.4129Y-7.7043
X2.4129Y-8.3669
X2.4129Y-8.4669
X2.4129Y-8.5669
X2.4129Y-8.6669
X2.4129Y-8.7669
X3.1933Y-1.2183
X3.1933Y-1.3183
X3.2933Y-1.2183
X3.2933Y-1.3183
X3.3933Y-1.2183
X3.3933Y-1.3183
X3.4933Y-1.2183
X3.4933Y-1.3183
X3.5933Y-1.2183
X3.5933Y-1.3183
X3.6933Y-1.2183
X3.6933Y-1.3183
X3.7933Y-1.2183
X3.7933Y-1.3183
X3.8933Y-1.2183
X3.8933Y-1.3183
X4.4685Y-9.085
X4.4685Y-9.185
X4.5685Y-9.085
X4.5685Y-9.185
X4.6685Y-9.085
X4.6685Y-9.185
X4.7685Y-9.085
X4.7685Y-9.185
X4.8685Y-9.085
X4.8685Y-9.185
X8.4646Y-3.4146
X8.4646Y-3.5146
X8.4646Y-3.6146
X8.4646Y-3.7146
X8.4646Y-3.8146
X8.4646Y-3.9146
X8.4646Y-4.0146
X8.4646Y-4.1146
X8.4646Y-4.2146
X8.4646Y-4.3146
X8.4646Y-4.4146
X8.4646Y-4.5146
X8.4646Y-4.6146
X8.4646Y-4.7146
X8.4646Y-4.8146
X8.4646Y-4.9146
X8.4646Y-5.0146
X8.4646Y-5.1146
X8.4646Y-5.2146
X8.4646Y-5.3146
X8.4646Y-5.4146
X8.4646Y-5.5146
X8.4646Y-5.6146
X8.4646Y-5.7146
X8.4646Y-5.8146
X8.4646Y-5.9146
X8.4646Y-6.0146
X8.4646Y-6.1146
X8.4646Y-6.2146
X8.4646Y-6.3146
X8.4646Y-6.4146
X8.4646Y-6.5146
X8.4646Y-6.6146
X8.4646Y-6.7146
X8.4646Y-6.8146
X8.4646Y-6.9146
X9.0551Y-3.4146
X9.0551Y-3.5146
X9.0551Y-3.6146
X9.0551Y-3.7146
X9.0551Y-3.8146
X9.0551Y-3.9146
X9.0551Y-4.0146
X9.0551Y-4.1146
X9.0551Y-4.2146
X9.0551Y-4.3146
X9.0551Y-4.4146
X9.0551Y-4.5146
X9.0551Y-4.6146
X9.0551Y-4.7146
X9.0551Y-4.8146
X9.0551Y-4.9146
X9.0551Y-5.0146
X9.0551Y-5.1146
X9.0551Y-5.2146
X9.0551Y-5.3146
X9.0551Y-5.4146
X9.0551Y-5.5146
X9.0551Y-5.6146
X9.0551Y-5.7146
X9.0551Y-5.8146
X9.0551Y-5.9146
X9.0551Y-6.0146
X9.0551Y-6.1146
X9.0551Y-6.2146
X9.0551Y-6.3146
X9.0551Y-6.4146
X9.0551Y-6.5146
X9.0551Y-6.6146
X9.0551Y-6.7146
X9.0551Y-6.8146
X9.0551Y-6.9146
X9.6457Y-3.4146
X9.6457Y-3.5146
X9.6457Y-3.6146
X9.6457Y-3.7146
X9.6457Y-3.8146
X9.6457Y-3.9146
X9.6457Y-4.0146
X9.6457Y-4.1146
X9.6457Y-4.2146
X9.6457Y-4.3146
X9.6457Y-4.4146
X9.6457Y-4.5146
X9.6457Y-4.6146
X9.6457Y-4.7146
X9.6457Y-4.8146
X9.6457Y-4.9146
X9.6457Y-5.0146
X9.6457Y-5.1146
X9.6457Y-5.2146
X9.6457Y-5.3146
X9.6457Y-5.4146
X9.6457Y-5.5146
X9.6457Y-5.6146
X9.6457Y-5.7146
X9.6457Y-5.8146
X9.6457Y-5.9146
X9.6457Y-6.0146
X9.6457Y-6.1146
X9.6457Y-6.2146
X9.6457Y-6.3146
X9.6457Y-6.4146
X9.6457Y-6.5146
X9.6457Y-6.6146
X9.6457Y-6.7146
X9.6457Y-6.8146
X9.6457Y-6.9146
X10.2362Y-3.4146
X10.2362Y-3.5146
X10.2362Y-3.6146
X10.2362Y-3.7146
X10.2362Y-3.8146
X10.2362Y-3.9146
X10.2362Y-4.0146
X10.2362Y-4.1146
X10.2362Y-4.2146
X10.2362Y-4.3146
X10.2362Y-4.4146
X10.2362Y-4.5146
X10.2362Y-4.6146
X10.2362Y-4.7146
X10.2362Y-4.8146
X10.2362Y-4.9146
X10.2362Y-5.0146
X10.2362Y-5.1146
X10.2362Y-5.2146
X10.2362Y-5.3146
X10.2362Y-5.4146
X10.2362Y-5.5146
X10.2362Y-5.6146
X10.2362Y-5.7146
X10.2362Y-5.8146
X10.2362Y-5.9146
X10.2362Y-6.0146
X10.2362Y-6.1146
X10.2362Y-6.2146
X10.2362Y-6.3146
X10.2362Y-6.4146
X10.2362Y-6.5146
X10.2362Y-6.6146
X10.2362Y-6.7146
X10.2362Y-6.8146
X10.2362Y-6.9146
X10.8268Y-3.4146
X10.8268Y-3.5146
X10.8268Y-3.6146
X10.8268Y-3.7146
X10.8268Y-3.8146
X10.8268Y-3.9146
X10.8268Y-4.0146
X10.8268Y-4.1146
X10.8268Y-4.2146
X10.8268Y-4.3146
X10.8268Y-4.4146
X10.8268Y-4.5146
X10.8268Y-4.6146
X10.8268Y-4.7146
X10.8268Y-4.8146
X10.8268Y-4.9146
X10.8268Y-5.0146
X10.8268Y-5.1146
X10.8268Y-5.2146
X10.8268Y-5.3146
X10.8268Y-5.4146
X10.8268Y-5.5146
X10.8268Y-5.6146
X10.8268Y-5.7146
X10.8268Y-5.8146
X10.8268Y-5.9146
X10.8268Y-6.0146
X10.8268Y-6.1146
X10.8268Y-6.2146
X10.8268Y-6.3146
X10.8268Y-6.4146
X10.8268Y-6.5146
X10.8268Y-6.6146
X10.8268Y-6.7146
X10.8268Y-6.8146
X10.8268Y-6.9146
X11.4173Y-3.4146
X11.4173Y-3.5146
X11.4173Y-3.6146
X11.4173Y-3.7146
X11.4173Y-3.8146
X11.4173Y-3.9146
X11.4173Y-4.0146
X11.4173Y-4.1146
X11.4173Y-4.2146
X11.4173Y-4.3146
X11.4173Y-4.4146
X11.4173Y-4.5146
X11.4173Y-4.6146
X11.4173Y-4.7146
X11.4173Y-4.8146
X11.4173Y-4.9146
X11.4173Y-5.0146
X11.4173Y-5.1146
X11.4173Y-5.2146
X11.4173Y-5.3146
X11.4173Y-5.4146
X11.4173Y-5.5146
X11.4173Y-5.6146
X11.4173Y-5.7146
X11.4173Y-5.8146
X11.4173Y-5.9146
X11.4173Y-6.0146
X11.4173Y-6.1146
X11.4173Y-6.2146
X11.4173Y-6.3146
X11.4173Y-6.4146
X11.4173Y-6.5146
X11.4173Y-6.6146
X11.4173Y-6.7146
X11.4173Y-6.8146
X11.4173Y-6.9146
X12.0079Y-3.4146
X12.0079Y-3.5146
X12.0079Y-3.6146
X12.0079Y-3.7146
X12.0079Y-3.8146
X12.0079Y-3.9146
X12.0079Y-4.0146
X12.0079Y-4.1146
X12.0079Y-4.2146
X12.0079Y-4.3146
X12.0079Y-4.4146
X12.0079Y-4.5146
X12.0079Y-4.6146
X12.0079Y-4.7146
X12.0079Y-4.8146
X12.0079Y-4.9146
X12.0079Y-5.0146
X12.0079Y-5.1146
X12.0079Y-5.2146
X12.0079Y-5.3146
X12.0079Y-5.4146
X12.0079Y-5.5146
X12.0079Y-5.6146
X12.0079Y-5.7146
X12.0079Y-5.8146
X12.0079Y-5.9146
X12.0079Y-6.0146
X12.0079Y-6.1146
X12.0079Y-6.2146
X12.0079Y-6.3146
X12.0079Y-6.4146
X12.0079Y-6.5146
X12.0079Y-6.6146
X12.0079Y-6.7146
X12.0079Y-6.8146
X12.0079Y-6.9146
X12.5984Y-3.4146
X12.5984Y-3.5146
X12.5984Y-3.6146
X12.5984Y-3.7146
X12.5984Y-3.8146
X12.5984Y-3.9146
X12.5984Y-4.0146
X12.5984Y-4.1146
X12.5984Y-4.2146
X12.5984Y-4.3146
X12.5984Y-4.4146
X12.5984Y-4.5146
X12.5984Y-4.6146
X12.5984Y-4.7146
X12.5984Y-4.8146
X12.5984Y-4.9146
X12.5984Y-5.0146
X12.5984Y-5.1146
X12.5984Y-5.2146
X12.5984Y-5.3146
X12.5984Y-5.4146
X12.5984Y-5.5146
X12.5984Y-5.6146
X12.5984Y-5.7146
X12.5984Y-5.8146
X12.5984Y-5.9146
X12.5984Y-6.0146
X12.5984Y-6.1146
X12.5984Y-6.2146
X12.5984Y-6.3146
X12.5984Y-6.4146
X12.5984Y-6.5146
X12.5984Y-6.6146
X12.5984Y-6.7146
X12.5984Y-6.8146
X12.5984Y-6.9146
T4
X4.9394Y-1.2402
X5.0394Y-1.2402
X5.3339Y-1.2402
X5.4339Y-1.2402
X6.1713Y-1.2402
X6.2713Y-1.2402
X6.3713Y-1.2402
X6.8102Y-1.2402
X6.9102Y-1.2402
T5
X2.1654Y-1.0827
X2.1654Y-5.1673
X2.1654Y-9.252
X4.7244Y-5.1673
X7.4803Y-1.0827
X7.4803Y-9.252
X9.3504Y-5.4429
X12.7953Y-1.0827
X12.7953Y-5.1673
X12.7953Y-9.252
M30
